<?xml version="1.0" standalone="no"?>
<!DOCTYPE svg PUBLIC "-//W3C//DTD SVG 20010904//EN"
 "http://www.w3.org/TR/2001/REC-SVG-20010904/DTD/svg10.dtd">
<svg version="1.0" xmlns="http://www.w3.org/2000/svg"
 width="500.000000pt" height="500.000000pt" viewBox="0 0 500.000000 500.000000"
 preserveAspectRatio="xMidYMid meet">

<g transform="translate(0.000000,500.000000) scale(0.100000,-0.100000)"
fill="#000000" stroke="none">
<path d="M0 2500 l0 -2500 2500 0 2500 0 0 2500 0 2500 -2500 0 -2500 0 0
-2500z m2917 1462 c20 -6 -51 -85 -605 -668 -345 -364 -723 -763 -841 -888
-118 -124 -217 -226 -220 -226 -3 0 -19 11 -36 24 l-29 23 69 76 c39 42 132
141 208 220 l137 144 1 69 c0 38 4 94 8 125 l7 55 483 510 c267 280 491 513
499 518 24 14 281 29 319 18z m308 -43 c44 -11 84 -24 89 -29 6 -6 -67 -88
-180 -205 l-189 -196 -120 -4 c-114 -3 -156 -11 -250 -51 -22 -9 28 47 295
330 l175 186 50 -5 c28 -2 86 -14 130 -26z m-1163 -416 c-208 -219 -474 -499
-591 -623 -118 -124 -216 -226 -220 -228 -4 -1 -20 11 -35 27 l-28 29 268 281
c193 202 276 296 299 339 98 183 256 350 440 462 72 45 210 109 233 110 7 0
-157 -179 -366 -397z m1428 303 c41 -25 87 -55 102 -68 l28 -23 -175 -182
-175 -181 -58 34 c-31 19 -83 44 -115 56 -57 21 -57 21 -40 42 43 50 346 366
352 366 4 0 40 -20 81 -44z m252 -195 l53 -49 -26 -29 c-188 -205 -314 -337
-318 -335 -18 8 -111 95 -111 102 0 12 330 360 341 360 4 0 32 -22 61 -49z
m-1548 -615 c-30 -95 -44 -182 -44 -274 l0 -74 -192 -201 c-415 -437 -612
-642 -617 -644 -3 -1 -19 9 -35 22 l-30 24 170 176 c93 97 184 194 201 215
l33 38 -19 53 c-10 30 -21 70 -25 90 -6 36 -6 36 285 342 161 169 293 307 294
307 2 0 -8 -33 -21 -74z m-9 -509 c8 -31 28 -85 45 -121 18 -37 30 -70 28 -75
-2 -5 -77 -88 -168 -183 -91 -96 -270 -285 -399 -421 -129 -136 -236 -247
-239 -247 -9 0 -62 42 -62 49 0 5 101 115 225 246 134 142 222 242 218 249 -4
6 -24 37 -45 70 l-37 58 207 218 c114 120 208 217 210 215 1 -1 9 -27 17 -58z
m1324 -261 l22 -23 -313 -330 c-172 -181 -420 -443 -551 -581 -131 -139 -242
-252 -246 -252 -4 0 -19 12 -34 28 l-26 27 183 195 184 195 -91 13 c-50 7 -93
15 -96 17 -4 5 405 435 424 446 5 3 37 12 70 19 114 24 235 92 370 209 39 33
73 60 76 61 3 0 16 -11 28 -24z m-1135 -64 c34 -32 74 -67 91 -79 l30 -21 -60
-64 c-524 -553 -768 -808 -774 -808 -4 0 -19 12 -34 28 l-26 27 234 245 234
245 -60 56 -60 56 177 186 c98 103 180 187 183 187 2 0 32 -26 65 -58z m1426
-238 c0 -16 -135 -142 -221 -207 -104 -77 -221 -142 -310 -171 -82 -27 -247
-59 -280 -54 -16 2 44 71 288 329 l308 327 108 -106 c59 -59 107 -112 107
-118z m-1147 67 c36 -11 93 -23 126 -27 34 -3 61 -9 61 -11 0 -3 -89 -98 -197
-212 -109 -113 -299 -313 -423 -444 -123 -130 -229 -237 -235 -237 -7 0 -22
11 -34 24 l-23 25 33 39 c19 22 116 125 217 230 l183 191 -76 38 -76 39 178
187 c98 103 183 185 189 183 6 -2 41 -14 77 -25z"/>
</g>
</svg>
