<?xml version="1.0" standalone="no"?>
<!DOCTYPE svg PUBLIC "-//W3C//DTD SVG 20010904//EN"
 "http://www.w3.org/TR/2001/REC-SVG-20010904/DTD/svg10.dtd">
<svg version="1.0" xmlns="http://www.w3.org/2000/svg"
 width="201.000000pt" height="251.000000pt" viewBox="0 0 201.000000 251.000000"
 preserveAspectRatio="xMidYMid meet">

<g transform="translate(0.000000,251.000000) scale(0.100000,-0.100000)"
fill="#000000" stroke="none">
<path d="M1505 2500 c3 -5 8 -10 11 -10 2 0 4 5 4 10 0 6 -5 10 -11 10 -5 0
-7 -4 -4 -10z"/>
<path d="M1556 2478 c5 -18 9 -109 9 -203 0 -93 1 -151 3 -127 2 28 8 42 18
42 9 0 14 11 14 35 0 27 8 43 30 65 17 17 35 30 39 30 5 0 11 8 15 18 3 9 15
33 26 52 11 20 20 53 20 77 l0 43 -91 0 -91 0 8 -32z m120 -125 c-10 -10 -19
5 -10 18 6 11 8 11 12 0 2 -7 1 -15 -2 -18z"/>
<path d="M1860 2503 c1 -5 7 -19 15 -33 8 -14 14 -35 15 -46 0 -12 6 -27 14
-33 11 -10 15 -4 19 31 2 24 8 53 12 66 7 20 4 22 -34 22 -22 0 -41 -3 -41 -7z"/>
<path d="M953 2394 c-21 -9 -15 -27 7 -21 24 6 26 -5 5 -23 -8 -7 -15 -24 -15
-37 0 -18 -4 -24 -15 -19 -8 3 -15 1 -15 -5 0 -6 -4 -7 -10 -4 -5 3 -10 -1
-10 -9 0 -16 25 -22 33 -8 2 4 2 1 1 -5 -2 -7 0 -13 5 -13 4 0 6 -11 4 -24 -3
-13 1 -27 8 -31 8 -6 10 -4 4 6 -8 12 -6 12 8 0 23 -18 21 -28 -5 -37 -19 -6
-19 -7 -5 -16 35 -19 17 -30 -48 -26 -67 3 -88 -8 -59 -33 15 -13 16 -66 1
-86 -7 -9 -5 -13 7 -13 19 0 30 -25 57 -129 10 -41 20 -76 22 -78 2 -1 18 -6
35 -9 25 -5 31 -3 27 7 -3 8 1 34 9 59 14 45 22 42 28 -10 2 -19 8 -24 23 -22
11 2 25 4 32 4 7 1 11 4 10 7 0 3 34 41 76 84 42 42 77 79 77 81 0 2 -29 23
-65 46 -66 43 -83 73 -46 83 22 5 33 53 15 68 -7 6 -12 31 -11 62 0 31 -6 66
-16 86 -9 18 -15 37 -12 41 3 4 -3 7 -13 6 -9 0 -16 4 -15 9 1 11 -113 18
-134 9z m29 -76 c-7 -7 -12 -8 -12 -2 0 14 12 26 19 19 2 -3 -1 -11 -7 -17z
m28 -28 c0 -5 -4 -10 -10 -10 -5 0 -10 5 -10 10 0 6 5 10 10 10 6 0 10 -4 10
-10z m9 -192 c-1 -18 -5 -44 -9 -58 l-8 -25 -1 27 c-1 15 -5 38 -10 51 -10 27
-6 37 16 37 8 0 13 -12 12 -32z m24 -78 c-3 -12 -8 -19 -11 -16 -5 6 5 36 12
36 2 0 2 -9 -1 -20z"/>
<path d="M507 1945 c-22 -24 -27 -26 -27 -12 0 11 -5 15 -11 11 -6 -3 -9 -15
-6 -25 3 -11 -1 -19 -12 -21 -24 -5 103 -106 186 -148 37 -19 75 -40 84 -47
13 -11 18 -11 26 -1 25 33 22 46 -20 74 -23 16 -55 39 -70 51 -16 13 -36 23
-46 23 -27 0 -63 45 -70 87 l-6 37 -28 -29z"/>
<path d="M1150 1775 c0 -8 2 -15 4 -15 2 0 6 7 10 15 3 8 1 15 -4 15 -6 0 -10
-7 -10 -15z"/>
<path d="M1157 1639 c-5 -19 -11 -21 -44 -15 -69 12 -78 11 -75 -2 1 -8 -2
-11 -6 -8 -5 3 -18 -4 -28 -16 -19 -21 -19 -21 0 -14 16 5 17 4 7 -8 -7 -8
-20 -13 -30 -11 -12 2 -17 -4 -19 -23 -1 -15 2 -22 6 -17 12 17 44 11 52 -10
4 -12 14 -26 21 -32 24 -20 20 39 -4 65 -25 27 -21 27 62 2 93 -27 221 -52
237 -46 7 3 16 21 19 40 4 19 13 37 21 40 24 9 15 33 -15 39 -18 4 -42 0 -60
-9 -17 -9 -56 -18 -88 -21 -60 -7 -61 -6 -38 50 4 9 3 17 -3 17 -5 0 -12 -10
-15 -21z"/>
<path d="M956 1032 c-36 -208 -38 -220 -22 -250 21 -40 21 -59 2 -42 -8 6 -12
18 -9 26 3 8 0 14 -7 14 -8 0 -10 -9 -6 -24 3 -13 2 -26 -2 -28 -10 -4 -56
-288 -48 -296 3 -3 6 3 7 14 0 10 3 13 6 7 2 -7 -3 -23 -11 -35 -11 -15 -16
-43 -15 -83 1 -86 10 -108 49 -127 62 -30 67 -41 45 -100 -5 -11 6 -13 55 -8
37 4 61 2 64 -5 2 -5 5 -2 5 8 1 9 5 17 10 17 5 0 7 -9 4 -20 -4 -16 0 -20 23
-21 26 0 27 -1 9 -10 -31 -14 88 -3 173 16 l72 17 -16 36 c-9 20 -43 115 -75
211 -33 96 -62 177 -64 180 -3 3 -13 -6 -22 -18 -19 -28 -33 -13 -33 36 0 23
5 33 21 38 11 4 18 12 16 18 -3 7 -22 71 -42 142 -30 106 -41 131 -56 131 -11
0 -15 -4 -10 -11 5 -5 11 -23 14 -40 5 -20 -2 -11 -20 25 -28 60 -45 180 -24
180 6 0 11 -11 11 -24 0 -12 5 -38 11 -56 9 -25 9 -34 0 -40 -9 -5 -6 -9 9
-13 15 -4 20 -2 17 7 -9 22 -66 280 -69 311 -2 17 -10 31 -18 33 -12 2 -23
-41 -54 -216z m-44 -364 c-6 -6 -7 0 -4 19 5 21 7 23 10 9 2 -10 0 -22 -6 -28z
m195 -260 c-2 -13 -4 -5 -4 17 -1 22 1 32 4 23 2 -10 2 -28 0 -40z m25 -77
c-6 -3 -12 -17 -15 -31 -3 -19 -5 -16 -6 12 -1 30 2 36 15 31 9 -3 11 -8 6
-12z m0 -102 c-28 -5 -46 0 -24 8 6 3 10 8 7 13 -3 4 6 3 20 -3 l25 -12 -28
-6z"/>
<path d="M1980 877 c0 -19 -6 -47 -14 -63 -31 -64 -29 -87 9 -124 l35 -34 0
90 c0 100 -8 164 -21 164 -5 0 -9 -15 -9 -33z"/>
<path d="M2000 412 c0 -9 -44 -28 -85 -38 -60 -13 -149 -44 -164 -57 -9 -8
-65 -40 -126 -72 -144 -76 -224 -127 -225 -143 0 -9 5 -10 18 -3 25 13 118 16
215 6 88 -9 113 -25 40 -25 -35 0 -44 -3 -33 -10 8 -5 32 -10 52 -10 71 0 47
-17 -40 -29 -48 -6 -116 -15 -152 -20 -48 -6 10 -9 223 -10 l287 -1 0 210 c0
116 -2 210 -5 210 -3 0 -5 -3 -5 -8z m-205 -362 c-27 -12 -35 -12 -35 0 0 6
12 10 28 9 24 0 25 -1 7 -9z"/>
<path d="M716 214 c-5 -17 -13 -24 -31 -24 -18 0 -25 -5 -25 -20 0 -11 7 -23
15 -26 21 -8 19 -41 -2 -48 -10 -3 7 -3 37 -1 30 3 73 5 95 6 22 1 31 4 20 6
-26 6 -55 32 -55 49 0 7 9 16 20 19 11 3 20 9 20 13 0 9 -33 30 -65 42 -20 7
-24 5 -29 -16z"/>
</g>
</svg>
